<?xml version="1.0" standalone="no"?>
<!DOCTYPE svg PUBLIC "-//W3C//DTD SVG 20010904//EN"
 "http://www.w3.org/TR/2001/REC-SVG-20010904/DTD/svg10.dtd">
<svg version="1.0" xmlns="http://www.w3.org/2000/svg"
 width="221.000000pt" height="99.000000pt" viewBox="0 0 221.000000 99.000000"
 preserveAspectRatio="xMidYMid meet">

<g transform="translate(0.000000,99.000000) scale(0.100000,-0.100000)"
fill="#000000" stroke="none">
<path d="M853 760 c0 -30 2 -43 4 -27 2 15 2 39 0 55 -2 15 -4 2 -4 -28z"/>
<path d="M893 758 c0 -51 0 -52 4 -8 l4 45 39 -45 39 -45 -1 55 c-1 52 -1 53
-7 15 l-6 -40 -29 38 c-15 20 -32 37 -35 37 -4 0 -8 -24 -8 -52z"/>
<path d="M1017 803 c-15 -15 -5 -35 23 -44 41 -15 41 -43 0 -37 -19 3 -27 1
-21 -5 14 -14 55 -4 59 15 2 11 -8 23 -28 33 -34 18 -31 39 6 32 13 -2 21 0
18 4 -6 11 -48 12 -57 2z"/>
<path d="M1117 803 c18 -4 23 -12 26 -51 l3 -47 2 47 c2 35 6 48 20 51 9 3 -3
5 -28 4 -25 0 -35 -2 -23 -4z"/>
<path d="M1213 760 c0 -30 2 -43 4 -27 2 15 2 39 0 55 -2 15 -4 2 -4 -28z"/>
<path d="M1262 803 c12 -3 18 -18 21 -51 l3 -47 2 47 c2 35 6 48 20 51 9 3 -1
5 -23 5 -22 0 -32 -2 -23 -5z"/>
<path d="M1354 765 l1 -50 35 0 35 0 1 50 2 50 -7 -45 c-5 -40 -9 -45 -31 -45
-22 0 -26 5 -31 45 l-7 45 2 -50z"/>
<path d="M1472 803 c12 -3 18 -18 21 -51 l3 -47 2 47 c2 35 6 48 20 51 9 3 -1
5 -23 5 -22 0 -32 -2 -23 -5z"/>
<path d="M1560 760 l0 -50 38 2 c35 1 35 1 6 5 -29 4 -32 7 -32 43 -1 36 1 39
31 43 31 4 31 4 -5 5 l-38 2 0 -50z"/>
<path d="M1708 760 c-1 -28 0 -50 5 -50 4 0 7 9 7 19 0 14 8 21 28 24 l27 4
-27 2 c-21 1 -28 6 -28 20 0 15 8 21 33 24 l32 4 -37 1 -36 2 -4 -50z"/>
<path d="M1808 785 c-17 -38 3 -75 42 -75 21 0 34 8 46 25 15 23 15 27 0 50
-12 17 -25 25 -46 25 -23 0 -33 -6 -42 -25z m77 -25 c0 -29 -4 -36 -23 -38
-43 -6 -69 37 -40 66 7 7 24 12 38 10 21 -3 25 -8 25 -38z"/>
<path d="M1931 758 c1 -29 4 -43 6 -30 2 12 9 22 16 22 6 0 22 -10 35 -22 21
-20 23 -20 15 -4 -8 14 -8 25 0 37 17 28 1 49 -38 49 l-35 0 1 -52z m67 25
c-2 -11 -14 -19 -31 -21 -22 -3 -27 1 -27 17 0 17 6 21 31 21 24 0 30 -4 27
-17z"/>
<path d="M866 627 c-12 -9 -17 -23 -14 -47 2 -27 9 -37 31 -44 20 -7 30 -6 40
3 10 11 8 12 -11 6 -28 -8 -52 10 -52 40 0 31 24 49 57 41 21 -5 24 -4 13 4
-20 13 -43 13 -64 -3z"/>
<path d="M964 585 c1 -48 2 -50 31 -51 27 -1 28 0 3 3 -24 4 -27 9 -31 51 l-4
47 1 -50z"/>
<path d="M1063 590 c0 -30 2 -43 4 -27 2 15 2 39 0 55 -2 15 -4 2 -4 -28z"/>
<path d="M1102 590 c1 -47 2 -49 5 -15 l4 40 19 -25 19 -25 18 25 18 25 6 -40
c6 -38 6 -37 7 15 l1 55 -26 -30 -26 -29 -23 29 -24 30 2 -55z"/>
<path d="M1246 591 c-15 -29 -25 -55 -22 -58 3 -3 8 2 12 11 8 22 60 21 73 -1
22 -37 10 12 -13 57 l-24 44 -26 -53z m44 -8 c0 -7 -9 -13 -20 -13 -23 0 -24
4 -9 32 9 17 13 18 20 7 5 -8 9 -20 9 -26z"/>
<path d="M1358 630 c13 -6 31 -6 45 0 18 7 14 9 -23 9 -37 0 -41 -2 -22 -9z"/>
<path d="M1450 585 l0 -55 38 2 c36 1 36 1 5 5 -43 6 -47 40 -5 46 l27 4 -27
2 c-21 1 -28 6 -28 20 0 15 8 21 33 24 31 4 31 4 -5 5 l-38 2 0 -55z"/>
<path d="M1609 594 c-11 -26 -17 -49 -14 -52 3 -3 5 0 5 6 0 7 15 12 35 12 20
0 35 -5 35 -12 0 -6 2 -9 5 -6 6 6 -31 98 -40 98 -3 0 -15 -21 -26 -46z m35
-22 c-25 -6 -32 2 -22 28 l9 25 14 -25 c12 -21 12 -25 -1 -28z"/>
<path d="M1712 590 c1 -52 1 -53 7 -15 l6 40 29 -37 c15 -21 32 -38 37 -38 5
0 8 24 7 53 l-1 52 -4 -45 -4 -45 -39 45 -39 45 1 -55z"/>
<path d="M1830 585 c0 -51 2 -55 23 -55 33 0 67 28 67 55 0 27 -34 55 -67 55
-21 0 -23 -4 -23 -55z m64 29 c9 -8 16 -20 16 -26 0 -19 -32 -48 -52 -48 -15
0 -18 8 -18 45 0 38 3 45 19 45 11 0 27 -7 35 -16z"/>
<path d="M854 455 c-8 -19 3 -34 32 -45 13 -5 24 -14 24 -20 0 -17 -29 -23
-45 -10 -9 8 -15 8 -15 2 0 -17 39 -25 55 -12 24 20 17 40 -15 52 -34 11 -35
33 -1 32 11 0 21 3 21 8 0 14 -50 9 -56 -7z"/>
<path d="M1022 434 c-3 -75 -62 -87 -62 -13 0 21 -3 39 -8 39 -15 0 -4 -74 14
-87 22 -16 26 -16 48 0 13 10 16 23 13 57 l-4 45 -1 -41z"/>
<path d="M1064 455 c-8 -19 3 -34 32 -45 13 -5 24 -14 24 -20 0 -17 -29 -23
-45 -10 -9 8 -15 8 -15 2 0 -17 39 -25 55 -12 24 20 17 40 -15 52 -34 11 -35
33 -1 32 11 0 21 3 21 8 0 14 -50 9 -56 -7z"/>
<path d="M1169 459 c20 -8 23 -15 19 -49 -2 -22 0 -40 4 -40 5 0 8 20 8 44 0
34 4 46 18 49 9 3 -3 5 -28 5 -38 1 -41 -1 -21 -9z"/>
<path d="M1272 425 c-25 -51 -28 -65 -10 -47 15 15 61 15 76 0 7 -7 2 11 -10
40 -12 29 -25 52 -28 52 -3 0 -16 -20 -28 -45z m48 -17 c0 -4 -9 -8 -20 -8
-21 0 -24 8 -13 36 6 16 7 16 20 -2 7 -10 13 -21 13 -26z"/>
<path d="M1370 421 c0 -28 5 -51 10 -51 6 0 10 20 10 44 0 25 -4 48 -10 51 -6
4 -10 -13 -10 -44z"/>
<path d="M1422 420 c1 -51 1 -52 7 -16 l6 40 29 -38 c15 -20 30 -35 32 -33 9
9 9 87 1 87 -5 0 -7 -13 -5 -30 6 -40 -4 -38 -41 8 l-30 37 1 -55z"/>
<path d="M1551 418 c-12 -29 -16 -47 -9 -40 6 6 24 12 38 12 14 0 32 -6 38
-12 7 -7 3 11 -9 40 -12 28 -25 52 -29 52 -4 0 -17 -24 -29 -52z m39 23 c0 -5
3 -16 6 -25 4 -12 0 -16 -15 -16 -22 0 -25 8 -15 34 7 17 24 22 24 7z"/>
<path d="M1659 468 c-7 -16 -6 -98 1 -98 4 0 6 9 3 20 -4 17 0 20 24 20 36 0
46 -9 32 -27 -8 -9 -8 -13 -1 -13 16 0 24 18 15 33 -4 6 -8 23 -8 37 0 21 -5
26 -32 28 -18 2 -34 2 -34 0z m56 -28 c0 -18 -33 -26 -47 -12 -6 6 -7 15 -3
22 10 16 50 8 50 -10z"/>
<path d="M1761 423 c0 -29 3 -53 7 -53 4 0 6 17 4 38 -6 64 -10 69 -11 15z"/>
<path d="M1861 418 c1 -29 4 -43 6 -31 3 14 13 23 31 26 l27 4 -27 2 c-21 1
-28 6 -28 20 0 15 8 21 33 24 31 4 31 4 -5 5 l-38 2 1 -52z"/>
<path d="M862 288 c-15 -15 -15 -61 0 -76 14 -14 64 -16 72 -3 3 4 -11 8 -32
7 -36 -1 -37 0 -37 34 0 34 1 35 37 34 21 -1 35 3 32 7 -8 13 -58 11 -72 -3z"/>
<path d="M963 250 c0 -30 2 -43 4 -27 2 15 2 39 0 55 -2 15 -4 2 -4 -28z"/>
<path d="M1012 293 c12 -3 18 -18 21 -51 l3 -47 2 47 c2 40 5 47 25 51 12 2 2
4 -23 4 -25 1 -37 -1 -28 -4z"/>
<path d="M1103 250 c0 -30 2 -43 4 -27 2 15 2 39 0 55 -2 15 -4 2 -4 -28z"/>
<path d="M1150 250 l0 -50 38 2 c36 1 36 1 5 5 -43 6 -47 40 -5 46 l27 4 -27
2 c-40 2 -36 29 5 34 31 4 31 4 -5 5 l-38 2 0 -50z"/>
<path d="M1252 287 c-14 -16 -5 -29 31 -45 37 -16 25 -36 -16 -28 -23 5 -28 3
-20 -5 16 -16 67 -7 71 14 3 12 -6 21 -27 28 -38 13 -43 44 -6 37 14 -3 25 -1
25 3 0 14 -46 10 -58 -4z"/>
</g>
</svg>
